<svg width="1070" height="249" viewBox="0 0 1070 249" fill="none" xmlns="http://www.w3.org/2000/svg">
    <path d="M388.756 138.958C387.655 137.959 386.738 138.144 385.967 139.438C383.49 142.976 380.222 145.877 376.427 147.908C371.194 150.953 365.222 152.465 359.182 152.272C355.736 152.241 352.333 151.504 349.179 150.106C346.025 148.707 343.186 146.675 340.836 144.135C338.037 141.201 335.868 137.715 334.467 133.897C333.065 130.078 332.46 126.01 332.69 121.945C332.472 117.899 333.101 113.852 334.536 110.067C335.971 106.283 338.18 102.844 341.019 99.9763C343.387 97.4632 346.23 95.4547 349.381 94.0697C352.533 92.6848 355.928 91.9516 359.366 91.9137C365.353 91.6817 371.229 93.5947 375.95 97.3134C377.81 98.6084 379.37 100.294 380.523 102.254C381.675 104.213 382.394 106.401 382.628 108.668V111.478C382.592 111.749 382.618 112.025 382.705 112.284C382.792 112.543 382.937 112.778 383.128 112.972C383.32 113.165 383.554 113.311 383.811 113.398C384.068 113.486 384.341 113.512 384.61 113.476H391.948C392.217 113.512 392.491 113.486 392.747 113.398C393.004 113.311 393.238 113.165 393.43 112.972C393.621 112.778 393.766 112.543 393.853 112.284C393.94 112.025 393.966 111.749 393.93 111.478V83.8142C393.93 82.3718 393.269 81.6691 391.948 81.6691H385.747C385.458 81.6253 385.162 81.6506 384.884 81.743C384.606 81.8353 384.354 81.9921 384.147 82.2007C383.94 82.4093 383.784 82.664 383.692 82.9442C383.601 83.2244 383.576 83.5224 383.619 83.8142V92.8383C380.843 88.8428 377.11 85.6189 372.767 83.4659C368.425 81.3129 363.613 80.3005 358.778 80.5226C353.592 80.4024 348.434 81.3213 343.603 83.2259C338.772 85.1305 334.364 87.983 330.636 91.6179C326.72 95.5735 323.671 100.313 321.687 105.531C319.702 110.748 318.826 116.328 319.114 121.908C318.835 127.526 319.715 133.142 321.698 138.4C323.681 143.658 326.724 148.444 330.636 152.457C334.406 156.188 338.883 159.117 343.8 161.067C348.717 163.018 353.973 163.951 359.255 163.811C364.046 163.834 368.811 163.11 373.382 161.666C377.241 160.511 380.886 158.725 384.17 156.377C386.498 154.704 388.683 152.836 390.701 150.793C391.853 149.661 392.897 148.423 393.82 147.094C394.22 146.511 394.472 145.838 394.553 145.134C394.514 144.812 394.404 144.503 394.233 144.228C394.062 143.953 393.833 143.72 393.563 143.544L388.829 138.958H388.756ZM492.265 160.667V153.603C492.308 153.335 492.287 153.059 492.205 152.8C492.123 152.54 491.982 152.304 491.793 152.11C491.604 151.915 491.372 151.769 491.116 151.681C490.86 151.594 490.588 151.568 490.32 151.606H481.147V113.402C481.147 91.4576 469.724 80.4856 446.877 80.4856C439.919 80.3232 432.994 81.5032 426.476 83.9621C422.12 85.3799 418.185 87.8716 415.028 91.211C414.074 92.0986 413.964 92.9493 414.697 93.8369L419.284 99.6064C420.054 100.716 421.229 100.605 422.953 99.2736L425.815 97.4614C427.837 96.3105 429.933 95.2973 432.09 94.4287C436.726 92.9025 441.602 92.2505 446.473 92.5055C460.612 92.5055 467.681 99.3722 467.681 113.106V115.066H453.958C442.918 114.525 431.913 116.696 421.889 121.39C418.249 123.178 415.202 125.992 413.117 129.491C411.033 132.99 410.001 137.024 410.148 141.103C410.004 144.266 410.592 147.42 411.865 150.315C413.139 153.21 415.063 155.766 417.486 157.783C422.99 162.055 429.808 164.241 436.749 163.959C443.056 164.146 449.308 162.722 454.921 159.818C460.535 156.915 465.328 152.627 468.855 147.353H469.185V155.748C469.06 156.699 469.157 157.667 469.467 158.574C469.777 159.481 470.293 160.302 470.973 160.974C471.653 161.645 472.479 162.147 473.385 162.44C474.291 162.734 475.253 162.811 476.194 162.664H490.43C490.698 162.703 490.97 162.677 491.226 162.59C491.482 162.502 491.714 162.355 491.903 162.161C492.092 161.967 492.234 161.73 492.315 161.471C492.397 161.211 492.418 160.936 492.375 160.667H492.265ZM467.608 138.144C464.632 142.486 460.659 146.038 456.027 148.498C451.395 150.958 446.241 152.253 441.006 152.272C436.645 152.483 432.344 151.177 428.824 148.573C427.385 147.498 426.214 146.099 425.405 144.487C424.596 142.876 424.171 141.096 424.164 139.29C424.075 137.509 424.424 135.733 425.179 134.12C425.934 132.507 427.073 131.107 428.494 130.044C431.608 127.783 435.223 126.323 439.024 125.791C444.226 125.053 449.476 124.719 454.729 124.793H467.608V138.144ZM543.194 160.667V153.603C543.194 152.272 542.496 151.606 541.065 151.606H532.406V123.979C532.438 119.986 533.264 116.04 534.836 112.375C536.407 108.71 538.693 105.4 541.556 102.641C544.42 99.8824 547.804 97.7307 551.507 96.3137C555.211 94.8967 559.159 94.2431 563.117 94.3917H566.53C566.819 94.4354 567.115 94.4101 567.393 94.3178C567.671 94.2255 567.924 94.0687 568.131 93.8601C568.338 93.6514 568.493 93.3968 568.585 93.1166C568.676 92.8363 568.701 92.5384 568.658 92.2466V83.4813C568.701 83.1896 568.676 82.8916 568.585 82.6114C568.493 82.3311 568.338 82.0765 568.131 81.8678C567.924 81.6592 567.671 81.5024 567.393 81.4101C567.115 81.3178 566.819 81.2925 566.53 81.3362C561.446 81.2705 556.391 82.1094 551.596 83.8142C547.933 85.0553 544.508 86.919 541.469 89.3248C538.927 91.5461 536.715 94.1244 534.901 96.9806C533.311 99.2118 532.141 101.719 531.452 104.377H531.232V83.8142C531.232 82.4828 530.535 81.817 529.104 81.817H509.987C508.593 81.817 507.896 82.4828 507.896 83.8142V90.8782C507.896 92.2096 508.593 92.8383 509.987 92.8383H518.977V151.606H509.987C508.593 151.606 507.896 152.272 507.896 153.603V160.667C507.896 161.999 508.593 162.664 509.987 162.664H541.176C542.607 162.664 543.304 161.999 543.304 160.667H543.194ZM661.232 160.667V153.603C661.275 153.335 661.255 153.059 661.173 152.8C661.091 152.54 660.95 152.304 660.761 152.11C660.571 151.915 660.339 151.769 660.084 151.681C659.828 151.594 659.555 151.568 659.288 151.606H650.151V113.402C650.151 91.4576 638.716 80.4856 615.844 80.4856C608.886 80.3269 601.963 81.5068 595.443 83.9621C591.098 85.3783 587.174 87.8707 584.032 91.211C583.041 92.0986 582.931 92.9493 583.702 93.8369L588.252 99.6064C589.022 100.716 590.233 100.605 591.921 99.2736L594.783 97.4614C596.805 96.3105 598.901 95.2973 601.057 94.4287C605.694 92.9025 610.57 92.2505 615.441 92.5055C629.555 92.5055 636.624 99.3722 636.649 113.106V115.066H622.962C611.911 114.527 600.894 116.697 590.857 121.39C587.207 123.198 584.159 126.04 582.086 129.568C580.014 133.095 579.007 137.155 579.189 141.251C579.039 144.415 579.624 147.571 580.898 150.466C582.172 153.362 584.1 155.918 586.527 157.931C592.02 162.223 598.846 164.412 605.791 164.107C612.067 164.227 618.272 162.756 623.837 159.829C629.402 156.902 634.148 152.612 637.639 147.353H637.933V155.748C637.814 156.701 637.916 157.669 638.231 158.576C638.546 159.482 639.066 160.303 639.748 160.973C640.431 161.643 641.258 162.145 642.166 162.438C643.073 162.732 644.036 162.809 644.978 162.664H659.178C659.445 162.703 659.718 162.677 659.974 162.59C660.229 162.502 660.461 162.355 660.65 162.161C660.84 161.967 660.981 161.73 661.063 161.471C661.145 161.211 661.165 160.936 661.122 160.667H661.232ZM636.575 138.144C633.606 142.493 629.635 146.05 625.001 148.511C620.368 150.972 615.211 152.262 609.973 152.272C605.624 152.484 601.334 151.178 597.828 148.573C596.383 147.504 595.207 146.106 594.398 144.493C593.588 142.881 593.167 141.098 593.168 139.29C593.1 137.538 593.459 135.796 594.214 134.217C594.969 132.637 596.097 131.268 597.498 130.229C600.605 127.955 604.223 126.493 608.029 125.976C613.218 125.238 618.456 124.904 623.696 124.978H636.575V138.329V138.144ZM711.537 160.667V153.603C711.537 152.272 710.804 151.606 709.409 151.606H700.75V48.6052C700.75 45.8684 699.282 44.5 696.347 44.5H678.221C676.79 44.5 676.093 45.1287 676.093 46.4602V53.5241C676.093 54.8556 676.79 55.5213 678.221 55.5213H687.211V151.68H678.221C676.79 151.68 676.093 152.346 676.093 153.677V160.741C676.093 162.073 676.79 162.738 678.221 162.738H709.409C710.804 162.738 711.537 162.073 711.537 160.741V160.667ZM801.177 121.686V120.355C801.769 109.792 798.403 99.3906 791.747 91.211C788.463 87.5861 784.424 84.7381 779.921 82.8711C775.417 81.004 770.559 80.1642 765.695 80.4116C760.531 80.2885 755.394 81.2065 750.586 83.1119C745.779 85.0172 741.397 87.8714 737.699 91.5069C733.808 95.477 730.78 100.221 728.809 105.436C726.838 110.651 725.967 116.223 726.251 121.797C725.972 127.415 726.851 133.031 728.835 138.289C730.818 143.547 733.861 148.333 737.772 152.346C741.548 156.08 746.032 159.01 750.955 160.961C755.878 162.912 761.141 163.843 766.429 163.7C771.219 163.72 775.984 162.996 780.556 161.555C784.405 160.404 788.038 158.617 791.306 156.266C793.629 154.614 795.791 152.744 797.764 150.682C798.878 149.545 799.885 148.307 800.773 146.983C801.2 146.44 801.467 145.786 801.543 145.097C801.44 144.413 801.086 143.793 800.553 143.359L796.15 138.921C795.935 138.73 795.681 138.59 795.405 138.512C795.13 138.434 794.84 138.419 794.559 138.468C794.277 138.518 794.01 138.631 793.777 138.799C793.544 138.967 793.352 139.185 793.214 139.438C790.711 142.938 787.432 145.8 783.638 147.797C778.452 150.787 772.547 152.272 766.576 152.087C759.891 152.059 753.481 149.406 748.707 144.69C745.964 141.923 743.793 138.635 742.319 135.016C740.846 131.398 740.098 127.521 740.121 123.609H798.828C800.369 123.609 801.14 122.906 801.14 121.501L801.177 121.686ZM787.6 113.771H740.378C740.575 110.552 741.415 107.406 742.846 104.521C744.277 101.636 746.27 99.0717 748.707 96.9806C753.512 93.2137 759.463 91.2403 765.548 91.3959C768.434 91.2638 771.315 91.7344 774.011 92.7782C776.707 93.822 779.16 95.4164 781.216 97.4614C785.283 101.905 787.548 107.725 787.564 113.771H787.6ZM883 192.252C890.118 186.334 893.714 177.458 893.714 165.771V92.6904H902.521C902.784 92.7272 903.053 92.7019 903.306 92.6164C903.558 92.5309 903.788 92.3876 903.976 92.1977C904.165 92.0078 904.307 91.7764 904.392 91.5218C904.477 91.2672 904.502 90.9963 904.465 90.7302V83.8142C904.508 83.5454 904.488 83.2701 904.406 83.0107C904.324 82.7512 904.183 82.5148 903.993 82.3205C903.804 82.1262 903.572 81.9794 903.316 81.8919C903.061 81.8045 902.788 81.7788 902.521 81.817H883.477C883.208 81.7804 882.935 81.8068 882.678 81.8942C882.421 81.9816 882.188 82.1277 881.996 82.321C881.804 82.5143 881.659 82.7496 881.572 83.0086C881.486 83.2676 881.46 83.5433 881.496 83.8142L881.679 96.7956H881.349C879.12 92.1163 875.638 88.158 871.295 85.3675C866.196 82.0234 860.204 80.3327 854.123 80.5226C849.148 80.3524 844.195 81.2803 839.613 83.2416C835.031 85.2029 830.929 88.1501 827.595 91.8767C820.538 100.191 816.891 110.904 817.395 121.834C816.9 132.838 820.484 143.635 827.448 152.124C830.742 155.961 834.85 159.004 839.467 161.027C844.084 163.049 849.093 164.001 854.123 163.811C860.143 164.026 866.072 162.289 871.039 158.855C875.287 155.874 878.648 151.783 880.762 147.02V165.771C881.038 169.114 880.531 172.476 879.282 175.585C878.033 178.694 876.076 181.464 873.57 183.671C868.117 187.689 861.456 189.687 854.711 189.33C850.688 189.379 846.677 188.881 842.786 187.851C841.281 187.407 839.85 186.963 838.566 186.445C837.297 186.014 836.069 185.469 834.897 184.818C834.048 184.348 833.228 183.829 832.438 183.265L830.64 181.859C830.329 181.555 829.969 181.305 829.576 181.12C828.402 180.232 827.448 180.306 826.824 181.12L822.715 187.37C821.504 188.775 823.302 191.068 828.109 194.286C829.173 194.952 830.347 195.58 831.521 196.172C832.928 196.861 834.374 197.466 835.851 197.984C837.539 198.576 839.777 199.279 842.565 200.055C846.614 200.941 850.754 201.326 854.894 201.202C865.028 201.698 875.005 198.538 883.037 192.289L883 192.252ZM837.869 100.272C840.11 97.7133 842.866 95.6641 845.953 94.2606C849.04 92.857 852.388 92.1312 855.775 92.1312C859.161 92.1312 862.509 92.857 865.596 94.2606C868.683 95.6641 871.439 97.7133 873.68 100.272C878.701 106.393 881.244 114.2 880.799 122.13C881.248 130.162 878.71 138.074 873.68 144.32C871.459 146.911 868.71 148.99 865.62 150.415C862.53 151.839 859.172 152.577 855.775 152.577C852.377 152.577 849.019 151.839 845.929 150.415C842.84 148.99 840.091 146.911 837.869 144.32C832.807 138.21 830.19 130.416 830.53 122.463C830.178 114.519 832.797 106.732 837.869 100.642V100.272ZM1000.64 160.667V153.603C1000.68 153.335 1000.66 153.059 1000.58 152.8C1000.49 152.54 1000.35 152.304 1000.16 152.11C999.974 151.915 999.742 151.769 999.487 151.681C999.231 151.594 998.958 151.568 998.691 151.606H989.554V113.402C989.554 91.4576 978.119 80.4856 955.247 80.4856C948.289 80.3269 941.366 81.5068 934.846 83.9621C930.509 85.3953 926.589 87.8852 923.435 91.211C922.481 92.0986 922.371 92.9493 923.142 93.8369L927.691 99.6064C928.462 100.716 929.636 100.605 931.361 99.2736L934.223 97.4614C936.245 96.3105 938.341 95.2973 940.497 94.4287C945.133 92.9025 950.009 92.2505 954.88 92.5055C969.019 92.5055 976.088 99.3722 976.088 113.106V115.066H962.366C951.326 114.53 940.322 116.7 930.296 121.39C926.646 123.198 923.599 126.04 921.526 129.568C919.454 133.095 918.447 137.155 918.628 141.251C918.515 144.399 919.128 147.532 920.421 150.401C921.714 153.27 923.65 155.797 926.077 157.783C931.57 162.075 938.396 164.264 945.34 163.959C951.599 164.1 957.792 162.653 963.35 159.751C968.909 156.849 973.655 152.586 977.152 147.353H977.483V155.748C977.364 156.701 977.466 157.669 977.781 158.576C978.096 159.482 978.615 160.303 979.298 160.973C979.981 161.643 980.808 162.145 981.716 162.438C982.623 162.732 983.586 162.809 984.528 162.664H998.727C998.995 162.703 999.268 162.677 999.523 162.59C999.779 162.502 1000.01 162.355 1000.2 162.161C1000.39 161.967 1000.53 161.73 1000.61 161.471C1000.69 161.211 1000.72 160.936 1000.67 160.667H1000.64ZM975.978 138.144C973.021 142.47 969.072 146.013 964.467 148.473C959.861 150.932 954.735 152.235 949.523 152.272C945.162 152.483 940.861 151.177 937.341 148.573C935.886 147.508 934.7 146.113 933.878 144.5C933.056 142.888 932.621 141.103 932.608 139.29C932.54 137.538 932.899 135.796 933.654 134.217C934.409 132.637 935.536 131.268 936.938 130.229C940.044 127.955 943.663 126.493 947.468 125.976C952.658 125.238 957.896 124.904 963.136 124.978H976.015V138.329L975.978 138.144ZM1050.94 160.667V153.603C1050.94 152.272 1050.21 151.606 1048.81 151.606H1040.15V48.6052C1040.15 45.8684 1038.69 44.5 1035.75 44.5H1017.62C1016.19 44.5 1015.5 45.1287 1015.5 46.4602V53.5241C1015.5 54.8556 1016.19 55.5213 1017.62 55.5213H1026.58V151.68H1017.59C1016.16 151.68 1015.46 152.346 1015.46 153.677V160.741C1015.46 162.073 1016.16 162.738 1017.59 162.738H1048.78C1050.17 162.738 1050.9 162.073 1050.9 160.741L1050.94 160.667Z" fill="#0C197F"/>
    <path d="M37.7909 91.9281L78.2512 49.5551H78.6191C80.824 49.6133 82.9957 49.0094 84.8541 47.8214C86.7124 46.6333 88.1721 44.9156 89.0447 42.8899C89.9174 40.8642 90.1629 38.6235 89.7497 36.4569C89.3364 34.2903 88.2834 32.2973 86.7264 30.735C85.1694 29.1726 83.18 28.1128 81.0148 27.6922C78.8496 27.2715 76.6081 27.5094 74.5794 28.3751C72.5507 29.2408 70.8281 30.6946 69.6337 32.5489C68.4393 34.4032 67.828 36.5728 67.8787 38.7779C67.8787 38.7779 67.8787 38.7779 67.8787 39.0354L22.0849 86.8522C20.748 88.2256 20 90.0666 20 91.9833C20 93.8999 20.748 95.7409 22.0849 97.1144L146.298 226.22C147.659 227.639 149.528 228.46 151.494 228.501C153.46 228.542 155.362 227.801 156.781 226.44C158.201 225.08 159.021 223.211 159.063 221.245C159.104 219.279 158.363 217.377 157.002 215.957L37.7909 91.9281Z" fill="#0AD785"/>
    <path d="M175.173 180.022L89.9485 91.7444L105.544 75.6338L147.145 118.669C147.836 119.384 148.665 119.952 149.582 120.337C150.498 120.723 151.484 120.919 152.478 120.913C153.475 120.914 154.462 120.712 155.379 120.32C156.296 119.928 157.124 119.354 157.812 118.632L177.858 97.7399C178.532 97.0395 179.061 96.2132 179.415 95.3083C179.77 94.4033 179.943 93.4374 179.924 92.4657C179.905 91.494 179.695 90.5355 179.306 89.6449C178.917 88.7544 178.356 87.9492 177.656 87.2754C176.955 86.6015 176.129 86.0723 175.224 85.7178C174.319 85.3632 173.353 85.1905 172.381 85.2092C171.41 85.228 170.451 85.438 169.561 85.8272C168.67 86.2165 167.865 86.7773 167.191 87.4777L152.478 102.816L110.841 60.0014C110.154 59.2908 109.331 58.7259 108.421 58.3404C107.511 57.9549 106.532 57.7567 105.544 57.7577C104.55 57.7518 103.564 57.9475 102.648 58.3332C101.731 58.7188 100.902 59.2863 100.211 60.0014L74.4632 86.7052C73.1153 88.0804 72.3604 89.9292 72.3604 91.8547C72.3604 93.7803 73.1153 95.6291 74.4632 97.0042L163.881 189.622C163.881 190.026 163.66 190.357 163.66 190.725C164.129 193.261 165.471 195.552 167.453 197.201C169.435 198.85 171.932 199.754 174.511 199.754C177.089 199.754 179.586 198.85 181.568 197.201C183.551 195.552 184.893 193.261 185.361 190.725C185.356 187.976 184.296 185.334 182.4 183.343C180.505 181.351 177.918 180.163 175.173 180.022Z" fill="#0AD785"/>
    <path d="M280.957 86.7787L219.2 22.9249C218.509 22.2098 217.68 21.6423 216.763 21.2566C215.847 20.871 214.861 20.6752 213.867 20.6812L118.932 20.4973C116.981 20.4973 115.11 21.2723 113.73 22.6519C112.351 24.0315 111.576 25.9026 111.576 27.8537C111.576 29.8047 112.351 31.6759 113.73 33.0555C115.11 34.4351 116.981 35.2101 118.932 35.2101H210.887L265.325 91.9282L203.531 156.15L188.23 140.333L229.315 97.3719C230.663 95.9968 231.418 94.148 231.418 92.2224C231.418 90.2969 230.663 88.448 229.315 87.0729L209.195 66.291C209.195 66.291 209.195 66.291 209.195 66.0703C209.195 63.8879 208.548 61.7544 207.336 59.9398C206.123 58.1252 204.4 56.7108 202.384 55.8756C200.367 55.0405 198.149 54.8219 196.008 55.2477C193.868 55.6735 191.901 56.7244 190.358 58.2677C188.815 59.8109 187.764 61.7771 187.338 63.9176C186.912 66.0581 187.131 68.2768 187.966 70.2931C188.801 72.3094 190.216 74.0328 192.03 75.2453C193.845 76.4578 195.978 77.105 198.161 77.105C198.161 77.105 198.418 77.105 198.565 77.105L213.278 92.5167L172.597 135.258C171.26 136.631 170.512 138.472 170.512 140.389C170.512 142.305 171.26 144.146 172.597 145.52L198.345 171.966C199.033 172.688 199.86 173.262 200.777 173.654C201.694 174.046 202.681 174.248 203.678 174.247C205.662 174.109 207.541 173.305 209.012 171.966L280.957 97.0777C282.305 95.7025 283.06 93.8537 283.06 91.9282C283.06 90.0026 282.305 88.1538 280.957 86.7787Z" fill="#0AD785"/>
</svg>
